<svg width="20" height="20" viewBox="0 0 20 20" fill="none" xmlns="http://www.w3.org/2000/svg">
<g id="uis:calender">
<path id="Vector" d="M1.66602 15.8334C1.66602 17.25 2.74935 18.3334 4.16602 18.3334H15.8327C17.2493 18.3334 18.3327 17.25 18.3327 15.8334V9.16669H1.66602V15.8334ZM15.8327 3.33335H14.166V2.50002C14.166 2.00002 13.8327 1.66669 13.3327 1.66669C12.8327 1.66669 12.4993 2.00002 12.4993 2.50002V3.33335H7.49935V2.50002C7.49935 2.00002 7.16602 1.66669 6.66602 1.66669C6.16602 1.66669 5.83268 2.00002 5.83268 2.50002V3.33335H4.16602C2.74935 3.33335 1.66602 4.41669 1.66602 5.83335V7.50002H18.3327V5.83335C18.3327 4.41669 17.2493 3.33335 15.8327 3.33335Z" fill="#ACACAC"/>
</g>
</svg>
