<svg xmlns="http://www.w3.org/2000/svg" version="1.1" xmlns:xlink="http://www.w3.org/1999/xlink" width="512" height="512" x="0" y="0" viewBox="0 0 96 96" style="enable-background:new 0 0 512 512" xml:space="preserve"><g><g data-name="Cash On Delivery"><rect width="35.73" height="28.11" x="34.44" y="48.9" fill="#4DC8FF" rx="2.25" opacity="1" data-original="#4dc8ff"></rect><path fill="#61E6FF" d="M70.17 51.15v3.35a1.5 1.5 0 0 1-3 0v-2.6H37.44v2.6a1.5 1.5 0 0 1-3 0v-3.35a2.25 2.25 0 0 1 2.25-2.25h31.23a2.25 2.25 0 0 1 2.25 2.25z" opacity="1" data-original="#61e6ff"></path><path fill="#4DAAFF" d="M70.17 61.05v11.76L65.52 77H36.69a2.25 2.25 0 0 1-2.25-2.25v-15.7l17.69 6.81a4.27 4.27 0 0 1 2.44 5.54c0 .1-.98.66 15.6-10.35z" opacity="1" data-original="#4daaff"></path><path fill="#4D7DD2" d="m57.13 64.39-4.82-2.92-4.83 2.92V48.9h9.65z" opacity="1" data-original="#4d7dd2"></path><path fill="#4DC8FF" d="M47.48 48.9h9.65v3h-9.65z" opacity="1" data-original="#4dc8ff"></path><path fill="#FFC7AE" d="M78.37 69.47A4.25 4.25 0 0 1 77 72.63l-19.91 18a17.19 17.19 0 0 1-17.44 3.35l-15.41-5.7c-1.4-.51-1.91-.43-5.2-.38V66.79l3.46-1.93a11.58 11.58 0 0 1 9.82-.69c21.59 8.31 20.35 7.71 21.18 8.47a4.27 4.27 0 0 1 1.1 4.71c0 .1-1 .68 17.21-11.42a4.25 4.25 0 0 1 6.56 3.54z" opacity="1" data-original="#ffc7ae"></path><path fill="#FFA990" d="m77 72.63-19.91 18a17.19 17.19 0 0 1-17.44 3.35l-15.41-5.7c-1.4-.51-1.91-.43-5.2-.38v-4.29c2.76 0 3.66-.18 5.2.38l15.41 5.7a17.19 17.19 0 0 0 17.44-3.35c21.82-19.68 20.26-18.15 20.74-19a4.25 4.25 0 0 1-.83 5.29z" opacity="1" data-original="#ffa990"></path><path fill="#C5CCFF" d="M19 67v24.2a1.27 1.27 0 0 1-1.27 1.27h-4.26V65.72h4.27A1.27 1.27 0 0 1 19 67z" opacity="1" data-original="#c5ccff"></path><path fill="#A2A9D2" d="M19 84.76v6.43a1.27 1.27 0 0 1-1.27 1.27h-4.26v-9h4.27a1.28 1.28 0 0 1 1.26 1.3z" opacity="1" data-original="#a2a9d2"></path><path fill="#E8EFFF" d="M1.01 65.72h12.47v26.75H1.01z" opacity="1" data-original="#e8efff"></path><path fill="#FFFFFF" d="M4.74 65.72h5v14.37h-5z" opacity="1" data-original="#ffffff"></path><path fill="#CAD1FF" d="M1.01 83.48h12.47v8.98H1.01z" opacity="1" data-original="#cad1ff"></path><path fill="#008C72" d="m66.08 30-43.37 9.56a1.07 1.07 0 0 1-1.29-.83c-2.59-11.86-1.77-8.06-5-22.6a1.09 1.09 0 0 1 .83-1.3l43.4-9.51a1.09 1.09 0 0 1 1.3.83c3.28 14.89 4.3 19.56 5 22.6a1.09 1.09 0 0 1-.87 1.25z" opacity="1" data-original="#008c72"></path><path fill="#00A072" d="M19.91 17.86a.52.52 0 0 1 .4-.62l38.62-8.47a.52.52 0 0 1 .61.4L63.46 27a.52.52 0 0 1-.39.62l-38.62 8.49a.52.52 0 0 1-.62-.4c-1.44-6.57-3.95-17.99-3.92-17.85z" opacity="1" data-original="#00a072"></path><path fill="#007372" d="m66.08 30-19.29 4.27V18l19.12 6.18c1 4.37.76 3.47 1 4.58a1.09 1.09 0 0 1-.83 1.24z" opacity="1" data-original="#007372"></path><path fill="#005A72" d="m66.08 30-6.15 1.35a6.84 6.84 0 0 1 5.67-8.63c1.27 5.8 1.07 4.85 1.31 6a1.09 1.09 0 0 1-.83 1.28z" opacity="1" data-original="#005a72"></path><g fill="#006E72"><path d="m28.59 38.27-5.88 1.29a1.07 1.07 0 0 1-1.29-.83L20.16 33a6.82 6.82 0 0 1 8.4 5.12 1.13 1.13 0 0 1 .03.15zM17.93 22.27c-.17 0 0 .68-1.47-6.14a1.09 1.09 0 0 1 .83-1.3L23 13.59a6.81 6.81 0 0 1-5.07 8.68zM63.24 12a6.83 6.83 0 0 1-8.93-5.31l6.34-1.39a1.09 1.09 0 0 1 1.3.83z" fill="#006E72" opacity="1" data-original="#006e72"></path></g><path fill="#FFFFFF" d="m77.5 25.48-3 1.65a10 10 0 0 1-8.41.59l-17-6.54a3.65 3.65 0 0 1 2.38-6.9l14.81 4.56z" opacity="1" data-original="#ffffff"></path><path fill="#E8EFFF" d="M77.5 3.92h17.49v26.45H77.5z" opacity="1" data-original="#e8efff"></path><path fill="#FFC7AE" d="M47.06 16.42a3.66 3.66 0 0 0 2.08 4.76c.24.09 17.34 6.68 17.6 6.74a9.92 9.92 0 0 0 7.81-.79l3-1.65v-18l-3 .05c-.57 0 .61.38-15.86-5.7a12.56 12.56 0 0 0-12.81 2.4L39.54 10l21.12-4.68a1.09 1.09 0 0 1 1.3.83l2.67 12.17c-14.07-4.37-13.44-4.2-14.17-4.2a3.67 3.67 0 0 0-3.4 2.3z" opacity="1" data-original="#ffc7ae"></path><path fill="#FFA990" d="M77.49 22.23v3.25l-2.95 1.65a10 10 0 0 1-8.42.59c-7.66-3-3.89-1.5-17-6.54a3.66 3.66 0 0 1-2.08-4.76 2.24 2.24 0 0 1 .13-.27 3.63 3.63 0 0 0 2 1.78c.21.08 17.35 6.68 17.6 6.74a9.92 9.92 0 0 0 7.81-.79z" opacity="1" data-original="#ffa990"></path><path fill="#006E72" d="M37.33 22.88a4.38 4.38 0 1 0 6.46-4.29 4.38 4.38 0 0 0-6.46 4.29z" opacity="1" data-original="#006e72"></path><path fill="#FFFFFF" d="M83.75 3.62h5v14.37h-5z" opacity="1" data-original="#ffffff"></path><path fill="#CAD1FF" d="M77.5 21.39H95v8.98H77.5z" opacity="1" data-original="#cad1ff"></path><path fill="#302D3D" d="M71.23 65.25c-.1.07-.06 1.12-.06-14A3.26 3.26 0 0 0 67.92 48h-8.65a4.32 4.32 0 0 0-3.64-6.65A4.28 4.28 0 0 0 52.31 43a4.31 4.31 0 0 0-7 5h-8.62a3.26 3.26 0 0 0-3.25 3.25v12.43l-.79-.3a12.62 12.62 0 0 0-8.45-.21 25.77 25.77 0 0 0-4.81 2.42 2.27 2.27 0 0 0-1.65-.72H1a1 1 0 0 0-1 1v26.74a1 1 0 0 0 1 1h16.74A2.27 2.27 0 0 0 20 91.34V89c3.75-.07.93-.75 19.27 6a18.1 18.1 0 0 0 18.45-3.55l19.91-18a5.25 5.25 0 0 0-6.41-8.27zm-22.75-15.2h7.65v12.71l-3.31-2a1 1 0 0 0-1 0l-3.31 2zm7.15-6.65a2.33 2.33 0 0 1 0 4.65h-2.32v-2.32a2.32 2.32 0 0 1 2.32-2.33zm-9 2.33a2.33 2.33 0 0 1 4.66 0v2.32h-2.35a2.32 2.32 0 0 1-2.29-2.32zM35.44 51.3a1.25 1.25 0 0 1 1.25-1.25h9.79v14.49a1 1 0 0 0 1.52.85l4.31-2.6c4.63 2.8 4.43 2.75 4.82 2.75a1 1 0 0 0 1-1V50.05h9.79a1.25 1.25 0 0 1 1.25 1.25v15.32c-14.47 9.6-13.29 8.87-13.34 8.77A5.26 5.26 0 0 0 52.49 71l-17.05-6.54zM18 67.14v15.52a27.12 27.12 0 0 0-3.53 0V66.87h3.26a.26.26 0 0 1 .27.27zm-16-.27h10.47v24.74H2zm15.74 24.74h-3.26v-7h3.26a.28.28 0 0 1 .27.27v6.44a.27.27 0 0 1-.27.29zM76.3 72 56.39 90A16.13 16.13 0 0 1 40 93.15c-18.14-6.7-15.84-6.22-20-6.15V67.53l3-1.65a10.63 10.63 0 0 1 9-.63c21.55 8.28 20.3 7.72 20.93 8.33a3.3 3.3 0 0 1 .73 1 3.27 3.27 0 0 1-4 4.42l-17.31-5.27a1 1 0 0 0-.59 1.92L49.05 81a5.28 5.28 0 0 0 6.29-2.76l17-11.28a3.24 3.24 0 0 1 4 5.11zM95 3.07H77.5a1 1 0 0 0-1 1V6.6h-2c-.32 0 .61.3-15.48-5.64A13.53 13.53 0 0 0 45.2 3.64l-6.14 5.54L17.07 14a2.1 2.1 0 0 0-1.59 2.49l5 22.59a2.1 2.1 0 0 0 2 1.66c.37 0 43.72-9.55 43.82-9.57a2.07 2.07 0 0 0 1.62-1.8 10 10 0 0 0 1.8.16c3.12 0 4.93-1.16 6.79-2.2v3.19a1 1 0 0 0 1 1H95a1 1 0 0 0 1-1V4.07a1 1 0 0 0-1-1zM61 6.52l1.08 4.93a5.84 5.84 0 0 1-6.51-3.83C60.92 6.44 61 6.39 61 6.52zm-38.79 8.41a5.81 5.81 0 0 1-3.64 6.26c-1.09-4.93-1.17-5.09-1.12-5.19a.1.1 0 0 1 .05 0zm-.85 19a5.86 5.86 0 0 1 6 3.74c-5.21 1.15-4.81 1.1-4.91 1s.03.38-1.09-4.75zm8 3.31A7.83 7.83 0 0 0 20.93 32L19 23.15a7.78 7.78 0 0 0 5.16-8.65l29.42-6.45a7.79 7.79 0 0 0 8.9 5.34l.79 3.61-11.45-3.53a4.64 4.64 0 0 0-5.72 6 5.41 5.41 0 1 0 .62 1.19 4.6 4.6 0 0 0 2.06 1.57l10.63 4.1a7.89 7.89 0 0 0-.66 4.41zm13.07-11.35a3.39 3.39 0 1 1 2.56-4 3.38 3.38 0 0 1-2.56 4zm23.45 3.32c-.1 0 .07 0-5.17 1.13a.2.2 0 0 0 0-.07 5.85 5.85 0 0 1 .59-3.19l4.58 1.76.06.26a.1.1 0 0 1-.06.11zM76.49 25l-2.43 1.4a8.94 8.94 0 0 1-6.48.86c-.86-.16-1.07-.32-18.09-6.86a2.65 2.65 0 0 1 1.74-5c19.48 6 13.71 4.19 14.8 4.55a1 1 0 0 0 1.25-.66 1 1 0 0 0-.66-1.29l-1.15-.35c-4.13-18.85-1.79-8.2-2.54-11.6a2.09 2.09 0 0 0-2.49-1.59L43 8.31l3.53-3.19a11.56 11.56 0 0 1 11.76-2.25l15 5.55c.77.3 1.19.21 3.16.18zM94 29.52H78.5V5.07H94z" opacity="1" data-original="#302d3d"></path></g></g></svg>