<svg width="512" height="512" xmlns="http://www.w3.org/2000/svg" style="" version="1.1" xmlns:xlink="http://www.w3.org/1999/xlink"><style  type="text/css"></style><svg version="1.1" xmlns:xlink="http://www.w3.org/1999/xlink" x="0" y="0" viewBox="0 0 512 512" style="enable-background:new 0 0 512 512" xml:space="preserve" class=""><g><path d="M256 490.667a10.64 10.64 0 0 1-7.531-3.115S49.938 289.26 49.479 288.469C17.99 259.563 0 217.323 0 172 0 88.927 59.813 21.333 133.333 21.333c56.792 0 103.698 52.75 122.667 77.646 18.969-24.896 65.875-77.646 122.667-77.646C452.188 21.333 512 88.927 512 172c0 37.833-12.563 73.948-35.427 101.948-.49.927-213.031 213.594-213.031 213.594a10.636 10.636 0 0 1-7.542 3.125z" style="" fill="#303c42" data-original="#303c42" class=""/><path d="M255.99 464.927s202.542-202.635 202.833-202.979c20.531-24.396 31.844-56.344 31.844-89.948 0-71.313-50.24-129.333-112-129.333-61.063 0-113.177 79.646-113.698 80.448-3.938 6.083-14 6.083-17.938 0-.521-.802-52.635-80.448-113.698-80.448-61.76 0-112 58.021-112 129.333 0 40.438 16.344 77.906 44.854 102.802 1.032.906 189.803 190.125 189.803 190.125z" style="" fill="#d32f2f" data-original="#d32f2f" class=""/><path d="M378.667 42.667c-3.911 0-7.784.346-11.611.958C412.559 51.134 448 105.799 448 172c0 33.604-9.255 65.552-26.053 89.948-.24.344-165.885 202.892-165.951 202.973.081-.081 202.535-202.629 202.827-202.973 20.531-24.396 31.844-56.344 31.844-89.948 0-71.312-50.24-129.333-112-129.333z" style="opacity:0.1;enable-background:new ;" fill="#000000" opacity="1" data-original="#000000" class=""/><path d="M100.699 274.802C77.372 249.906 64 212.438 64 172c0-66.201 35.441-120.866 80.944-128.375-3.827-.612-7.699-.958-11.611-.958-61.76 0-112 58.021-112 129.333 0 40.438 16.344 77.906 44.854 102.802 1.031.906 189.802 190.125 189.802 190.125l.001-.001c-.007-.008-154.447-189.218-155.291-190.124z" style="opacity:0.2;enable-background:new ;" fill="#ffffff" data-original="#ffffff" class=""/><linearGradient id="a" x1="-46.122" x2="-25.076" y1="641.413" y2="631.599" gradientTransform="matrix(21.3333 0 0 -21.3333 996.333 13791.667)" gradientUnits="userSpaceOnUse"><stop offset="0" style="stop-color:#FFFFFF;stop-opacity:0.2" stop-color="#ffffff;stop-opacity:0.2"/><stop offset="1" style="stop-color:#FFFFFF;stop-opacity:0" stop-color="#ffffff;stop-opacity:0"/></linearGradient><path d="M256 490.667a10.64 10.64 0 0 1-7.531-3.115S49.938 289.26 49.479 288.469C17.99 259.563 0 217.323 0 172 0 88.927 59.813 21.333 133.333 21.333c56.792 0 103.698 52.75 122.667 77.646 18.969-24.896 65.875-77.646 122.667-77.646C452.188 21.333 512 88.927 512 172c0 37.833-12.563 73.948-35.427 101.948-.49.927-213.031 213.594-213.031 213.594a10.636 10.636 0 0 1-7.542 3.125z" style="fill:url(#a);" fill=""/></g></svg></svg>