<svg width="61" height="60" viewBox="0 0 61 60" fill="none" xmlns="http://www.w3.org/2000/svg">
    <g clip-path="url(#clip0_1_567)">
        <path
            d="M56.0147 31.1019V3.77964C56.0147 2.80489 55.2244 2.01465 54.2497 2.01465H6.96186C5.98711 2.01465 5.19687 2.80489 5.19687 3.77964V33.28C4.34544 33.404 3.51307 33.7346 2.77671 34.2812C0.4554 35.9273 -0.0936297 39.6109 1.8508 41.8827L9.80067 51.5204C14.7217 57.2798 19.9492 57.9854 27.7206 57.9854C34.3896 57.9854 37.3711 58.0148 43.1832 56.6905L48.8427 55.3369C49.7604 56.6184 51.2172 57.4485 52.855 57.4485H55.643C58.4131 57.4485 60.6667 55.0744 60.6667 52.1561V36.3784C60.6668 33.592 58.6117 31.3031 56.0147 31.1019ZM48.0814 34.7326L45.7297 33.5382C41.8631 31.5865 37.3926 31.5142 33.4649 33.3403C32.3934 33.7618 30.0562 35.1759 28.8438 35.1286H20.6835C17.9767 35.1286 15.7745 37.3307 15.7745 40.0376V41.3247C15.7593 41.3087 15.7434 41.2936 15.7284 41.2773L9.90104 34.9519C9.54839 34.5692 9.15221 34.2489 8.72696 33.9919V16.481H23.1708V22.951C23.1708 23.9257 23.9611 24.7159 24.9358 24.7159H36.073C37.0478 24.7159 37.838 23.9257 37.838 22.951V16.481H52.4848V31.1018C50.4226 31.2611 48.703 32.7364 48.0814 34.7326ZM26.7007 16.481H34.3079V21.186H26.7007V16.481ZM52.4847 12.951H37.838V5.54463H52.4848V12.951H52.4847ZM34.308 5.54463V12.9511H26.7008V5.54463H34.308ZM23.1707 5.54463V12.9511H8.72685V5.54463H23.1707ZM42.364 53.2568C36.9949 54.4865 33.7613 54.4367 27.7839 54.4367C20.4886 54.4367 16.9637 54.3188 12.5239 49.274L4.57406 39.6363C3.19125 37.8357 5.69589 35.7101 7.30485 37.3435L13.1323 43.669C14.6724 45.2941 16.6105 46.1885 18.9992 46.2411H35.1557C36.1304 46.2411 36.9207 45.4508 36.9207 44.4761C36.9207 43.5013 36.1304 42.7111 35.1557 42.7111H19.3043V40.0373C19.3043 39.277 19.9229 38.6583 20.6834 38.6583H28.8437C30.6821 38.79 33.3356 37.2549 34.9531 36.541C37.8947 35.1733 41.243 35.2274 44.1351 36.6872L47.8315 38.5646V51.9489L42.364 53.2568ZM57.1369 52.156C57.1369 53.1278 56.4668 53.9184 55.6431 53.9184H52.8551C52.0315 53.9184 51.3615 53.1278 51.3615 52.156V36.3784C51.3615 35.4066 52.0316 34.6159 52.8551 34.6159H55.6431C56.4668 34.6159 57.1369 35.4065 57.1369 36.3784V52.156Z"
            fill="#242424" />
    </g>
    <defs>
        <clipPath id="clip0_1_567">
            <rect width="60" height="60" fill="white" transform="translate(0.666748)" />
        </clipPath>
    </defs>
</svg>