<svg width="20" height="16" viewBox="0 0 20 16" fill="none" xmlns="http://www.w3.org/2000/svg">
<path d="M10 15C16.1574 15 19 8.00002 19 8.00002C19 8.00002 16.1574 1.00003 10 1.00003C3.84262 1.00003 1 8.00002 1 8.00002C1 8.00002 3.84262 15 10 15Z" stroke="white" stroke-width="0.929" stroke-linejoin="round"/>
<path d="M12.686 8.00018C12.6942 7.546 12.6287 7.09438 12.4933 6.67182C12.3578 6.24925 12.1552 5.86427 11.8973 5.53947C11.6394 5.21467 11.3314 4.9566 10.9914 4.78041C10.6515 4.60421 10.2863 4.51345 9.91742 4.51345C9.54855 4.51345 9.1834 4.60421 8.8434 4.78041C8.5034 4.9566 8.19541 5.21467 7.93751 5.53947C7.67961 5.86427 7.477 6.24925 7.34158 6.67182C7.20615 7.09438 7.14064 7.546 7.14889 8.00018C7.14889 8.90469 7.44064 9.77216 7.95997 10.4117C8.47931 11.0513 9.18367 11.4106 9.91812 11.4106C10.6526 11.4106 11.3569 11.0513 11.8763 10.4117C12.3956 9.77216 12.6873 8.90469 12.6873 8.00018H12.686Z" stroke="white" stroke-width="0.929" stroke-linejoin="round"/>
</svg>
