<svg width="61" height="60" viewBox="0 0 61 60" fill="none" xmlns="http://www.w3.org/2000/svg">
    <g clip-path="url(#clip0_1_559)">
        <path
            d="M57.1194 21.2612C56.3277 18.8097 56.6652 15.1296 54.6074 12.2882C52.5334 9.42438 48.9262 8.61039 46.8894 7.1207C44.874 5.64672 42.999 2.43918 39.6089 1.33293C36.3144 0.257852 32.9455 1.71672 30.3334 1.71672C27.7216 1.71672 24.3529 0.2575 21.0579 1.33281C17.6683 2.43883 15.7918 5.64707 13.7777 7.12035C11.7431 8.60828 8.13326 9.42449 6.05962 12.2879C4.00357 15.127 4.33767 18.8154 3.54736 21.2611C2.79525 23.5888 0.333374 26.3825 0.333374 30.0003C0.333374 33.6203 2.79244 36.4032 3.54736 38.7393C4.33908 41.1909 4.00158 44.8709 6.05939 47.7123C8.13326 50.5763 11.7403 51.3902 13.7774 52.88C15.7924 54.3537 17.6677 57.5615 21.0579 58.6676C24.3501 59.742 27.7243 58.2838 30.3334 58.2838C32.9388 58.2838 36.3208 59.7405 39.6089 58.6677C42.9985 57.5617 44.8739 54.3542 46.889 52.8802C48.9236 51.3923 52.5335 50.5761 54.6071 47.7127C56.6633 44.8735 56.329 41.1854 57.1194 38.7394C57.8715 36.4116 60.3334 33.618 60.3334 30.0003C60.3334 26.3805 57.8749 23.5984 57.1194 21.2612ZM52.6591 37.298C51.7363 40.1545 51.978 43.3512 50.8108 44.963C49.6279 46.5962 46.5202 47.3423 44.1222 49.0963C41.7505 50.8308 40.0882 53.5804 38.1548 54.2112C36.3258 54.8082 33.345 53.5961 30.3335 53.5961C27.3 53.5961 24.3499 54.8107 22.512 54.2112C20.5789 53.5804 18.919 50.8327 16.5446 49.0962C14.1608 47.3528 11.0354 46.5914 9.85591 44.9628C8.69248 43.3564 8.92509 40.1375 8.00787 37.2981C7.1088 34.5162 5.02087 32.1074 5.02087 30.0003C5.02087 27.891 7.10693 25.4905 8.00763 22.7025C8.93048 19.8462 8.68873 16.6492 9.85591 15.0375C11.0381 13.4054 14.1481 12.6569 16.5446 10.9042C18.9239 9.1641 20.5758 6.42109 22.5118 5.78934C24.3393 5.19309 27.3299 6.40445 30.3333 6.40445C33.3723 6.40445 36.315 5.18898 38.1547 5.78934C40.0876 6.42004 41.749 9.16879 44.1222 10.9043C46.5057 12.6477 49.6313 13.4091 50.8108 15.0377C51.9745 16.6444 51.7406 19.86 52.6589 22.7023V22.7024C53.5579 25.4843 55.6459 27.8931 55.6459 30.0003C55.6459 32.1095 53.5598 34.51 52.6591 37.298ZM41.1314 22.4774C42.0467 23.3928 42.0467 24.8767 41.1314 25.792L29.4002 37.5231C28.4849 38.4385 27.0008 38.4384 26.0856 37.5231L19.5355 30.973C18.6201 30.0577 18.62 28.5737 19.5354 27.6585C20.4507 26.7433 21.9349 26.7432 22.8499 27.6585L27.7428 32.5513L37.8166 22.4775C38.732 21.5622 40.216 21.5622 41.1314 22.4774Z"
            fill="#242424" />
    </g>
    <defs>
        <clipPath id="clip0_1_559">
            <rect width="60" height="60" fill="white" transform="translate(0.333374)" />
        </clipPath>
    </defs>
</svg>