<svg width="24" height="24" viewBox="0 0 24 24" fill="none" xmlns="http://www.w3.org/2000/svg">
<g id="ci:tag">
<path id="Vector" d="M12.8976 21.968C12.3676 21.97 11.8576 21.758 11.4836 21.382L3.64662 13.547C3.44229 13.3434 3.28461 13.0978 3.18447 12.8272C3.08433 12.5567 3.04412 12.2676 3.06662 11.98L3.56662 5.41401C3.60116 4.93599 3.80714 4.48652 4.14668 4.14827C4.48621 3.81002 4.93647 3.60574 5.41462 3.57301L11.9806 3.07301C12.0326 3.06201 12.0836 3.06201 12.1356 3.06201C12.6656 3.06201 13.1726 3.27201 13.5456 3.64801L21.3836 11.482C21.5694 11.6677 21.7168 11.8883 21.8174 12.131C21.9179 12.3737 21.9697 12.6338 21.9697 12.8965C21.9697 13.1592 21.9179 13.4194 21.8174 13.6621C21.7168 13.9048 21.5694 14.1253 21.3836 14.311L14.3116 21.382C14.1264 21.5683 13.906 21.716 13.6633 21.8166C13.4206 21.9172 13.1603 21.9687 12.8976 21.968ZM8.65462 6.65401C8.32573 6.65411 8.00193 6.73531 7.71192 6.89042C7.42191 7.04554 7.17462 7.26978 6.99197 7.54329C6.80932 7.8168 6.69693 8.13113 6.66477 8.45845C6.63261 8.78576 6.68167 9.11595 6.8076 9.41978C6.93352 9.72361 7.13244 9.99169 7.38671 10.2003C7.64099 10.4089 7.94279 10.5516 8.26537 10.6157C8.58795 10.6798 8.92137 10.6633 9.23608 10.5678C9.55079 10.4723 9.83709 10.3006 10.0696 10.068L10.0766 10.062L10.0836 10.055L10.0756 10.062C10.3536 9.78158 10.5424 9.42513 10.6181 9.03759C10.6938 8.65006 10.6531 8.24877 10.5012 7.88432C10.3492 7.51986 10.0928 7.20855 9.76416 6.98961C9.43555 6.77066 9.04948 6.65389 8.65462 6.65401Z" fill="#ACACAC"/>
</g>
</svg>
